<?xml version="1.0" encoding="UTF-8" standalone="no"?>
<!-- Created with Inkscape (http://www.inkscape.org/) -->

<svg
   width="112.55282mm"
   height="104.54099mm"
   viewBox="0 0 112.55282 104.54099"
   version="1.1"
   id="svg40203"
   sodipodi:docname="logo.svg"
   inkscape:export-filename="C:\Users\cdibbs\Desktop\Christmas Grace\logo.png"
   inkscape:export-xdpi="253.62"
   inkscape:export-ydpi="253.62"
   inkscape:version="1.1.1 (3bf5ae0d25, 2021-09-20)"
   xmlns:inkscape="http://www.inkscape.org/namespaces/inkscape"
   xmlns:sodipodi="http://sodipodi.sourceforge.net/DTD/sodipodi-0.dtd"
   xmlns="http://www.w3.org/2000/svg"
   xmlns:svg="http://www.w3.org/2000/svg">
  <sodipodi:namedview
     id="namedview40205"
     pagecolor="#ffffff"
     bordercolor="#666666"
     borderopacity="1.0"
     inkscape:pageshadow="2"
     inkscape:pageopacity="0"
     inkscape:pagecheckerboard="0"
     inkscape:document-units="mm"
     showgrid="false"
     inkscape:zoom="1.8116734"
     inkscape:cx="208.37089"
     inkscape:cy="217.75448"
     inkscape:window-width="1920"
     inkscape:window-height="1017"
     inkscape:window-x="-8"
     inkscape:window-y="-8"
     inkscape:window-maximized="1"
     inkscape:current-layer="layer1"
     fit-margin-top="5"
     fit-margin-left="5"
     fit-margin-right="5"
     fit-margin-bottom="5" />
  <defs
     id="defs40200" />
  <g
     inkscape:label="Layer 1"
     inkscape:groupmode="layer"
     id="layer1"
     transform="translate(-85.40787,-72.890838)">
    <path
       id="path2867-6-8-3"
       style="color:#000000;font-style:normal;font-variant:normal;font-weight:normal;font-stretch:normal;font-size:medium;line-height:normal;font-family:sans-serif;font-variant-ligatures:normal;font-variant-position:normal;font-variant-caps:normal;font-variant-numeric:normal;font-variant-alternates:normal;font-variant-east-asian:normal;font-feature-settings:normal;font-variation-settings:normal;text-indent:0;text-align:start;text-decoration:none;text-decoration-line:none;text-decoration-style:solid;text-decoration-color:#000000;letter-spacing:normal;word-spacing:normal;text-transform:none;writing-mode:lr-tb;direction:ltr;text-orientation:mixed;dominant-baseline:auto;baseline-shift:baseline;text-anchor:start;white-space:normal;shape-padding:0;shape-margin:0;inline-size:0;clip-rule:nonzero;display:inline;overflow:visible;visibility:visible;isolation:auto;mix-blend-mode:normal;color-interpolation:sRGB;color-interpolation-filters:linearRGB;solid-color:#000000;solid-opacity:1;vector-effect:none;fill:#004589;fill-opacity:1;fill-rule:nonzero;stroke:none;stroke-width:0.264999;stroke-linecap:round;stroke-linejoin:bevel;stroke-miterlimit:4;stroke-dasharray:none;stroke-dashoffset:0;stroke-opacity:1;color-rendering:auto;image-rendering:auto;shape-rendering:auto;text-rendering:auto;enable-background:accumulate;stop-color:#000000"
       d="m 142.0605,80.018351 a 23.924169,23.005829 0 0 0 -23.92413,23.006869 23.924169,23.005829 0 0 0 8.43671,17.51314 l -2.95486,26.26661 1.13689,0.34055 1.54717,23.15879 h 10.1813 l 14.89935,-10.33322 11.45717,4.63796 -5.20485,-44.142 a 23.924169,23.005829 0 0 0 8.34988,-17.44183 23.924169,23.005829 0 0 0 -23.92463,-23.006869 z" />
    <path
       id="path1212-1-2-7"
       style="display:inline;fill:#e8c87d;fill-opacity:1;stroke:none;stroke-width:0.264999;stroke-linecap:butt;stroke-linejoin:miter;stroke-miterlimit:4;stroke-dasharray:none;stroke-opacity:1"
       d="m 165.18622,106.79449 v 0.0217 l -0.85059,0.42581 v 1.11828 l -0.59118,0.31213 v -1.14102 l -0.86455,0.43305 v 1.1653 l -0.59428,0.31368 v -1.23145 l -0.86506,0.43305 v 1.25573 l -0.38293,0.20257 v -1.08365 h -1.04902 v 1.14205 c -0.2173,0.003 -0.43492,0.004 -0.65164,0.005 v -1.14205 h -1.04905 v 1.14308 c -0.24252,0 -0.48077,-0.003 -0.72191,-0.003 v -1.19115 h -1.04902 v 1.18288 c -0.20638,-0.003 -0.41323,-0.004 -0.61807,-0.005 v -1.11673 h -1.04902 v 1.10743 c -0.25485,-0.003 -0.46982,-0.007 -0.72141,-0.0114 V 108.984 h -1.04902 v 1.13429 c -0.24496,-0.004 -0.47697,-0.007 -0.71779,-0.0109 v -1.12809 h -1.04902 v 1.11259 c -0.23538,-0.004 -0.49112,-0.008 -0.72142,-0.0108 v -1.1529 h -1.04902 v 1.13792 c -0.007,-8e-5 -0.0161,0 -0.0233,0 l -0.42169,-0.22273 v -1.11414 l -0.61598,-0.3545 v 1.14256 l -0.42375,-0.22375 v -1.12138 l -0.61598,-0.3545 v 1.1498 l -0.42116,-0.22273 -0.0164,-1.08107 -0.61804,-0.47594 c -0.82272,-0.0297 -1.39837,-0.0284 -1.39837,-0.0284 l 0.0164,1.3317 h -1.05161 l 0.0465,-1.38235 h -1.26968 l -0.0465,1.38235 h -1.01234 l 0.0465,-1.38131 h -1.26968 l -0.0465,1.38131 h -0.91882 l 0.0465,-1.29863 h -1.26968 c 0,1.30421 -0.0671,2.93687 -0.0729,4.14238 -0.25905,0.0407 -0.65712,0.0181 -0.95861,0.0181 v 0.91881 c -0.24038,0.004 -0.47887,0.005 -0.71726,0.008 v -0.93482 h -1.04955 v 0.94878 c -0.24268,0.003 -0.48019,1.3e-4 -0.72141,0.004 v -1.00097 h -1.04902 v 1.00459 c -0.22305,0 -0.44953,0.004 -0.67181,0.004 v -1.06092 h -1.04902 v 1.05937 h -0.28733 c -0.14,0 -0.29459,-0.003 -0.43408,-0.004 v -1.10588 h -1.04955 v 1.09761 c -0.20656,-0.003 -0.41153,-0.003 -0.61754,-0.004 v -1.03301 h -1.04955 v 1.02681 c -0.24005,-0.003 -0.48125,-0.004 -0.72138,-0.005 v -1.07281 h -1.04905 v 1.06712 c -0.23627,0 -0.48009,-1.7e-4 -0.71726,-0.005 v -1.07229 h -1.04955 v 1.07022 c -0.24045,0 -0.47921,-2e-5 -0.72141,-0.003 V 111.141 h -1.04902 v 1.2733 c -0.0321,-0.0201 -0.066,-0.0357 -0.10078,-0.0481 -0.36735,-0.73468 -0.68461,-1.46261 -1.09191,-2.16111 l -1.40819,2.97088 a 23.924169,23.005829 0 0 0 5.95056,7.36234 l -2.95487,26.26868 1.13689,0.34054 1.54718,23.15621 h 10.18646 l 14.89418,-10.33012 11.45718,4.63796 -5.20486,-44.14459 a 23.924169,23.005829 0 0 0 8.01555,-13.67255 z m -9.94823,9.02994 c 0.10377,0.006 0.20497,0.0363 0.29662,0.0992 0.35788,0.14504 0.69885,0.34804 0.95756,0.63717 0.0354,0.0273 0.0677,0.0572 0.0971,0.0889 0.0222,0.0241 0.0419,0.0499 0.0615,0.076 0.006,0.008 0.0132,0.0153 0.019,0.0238 v 0 c 0.0494,0.0701 0.0906,0.14617 0.12917,0.22428 v 0 c 0.0386,0.0783 0.074,0.1586 0.11213,0.23719 v 0 c 0.038,0.0783 0.0788,0.15531 0.1266,0.22634 0.0122,0.0307 0.0193,0.062 0.0294,0.093 0.0116,0.036 0.0251,0.0717 0.0341,0.10801 0.006,0.0249 0.009,0.05 0.014,0.0749 0.009,0.0439 0.0185,0.0879 0.0243,0.13229 0.007,0.0534 0.0106,0.10733 0.014,0.16123 0,0.0143 0.003,0.0281 0.004,0.0424 0.003,0.0537 0.003,0.10769 0.003,0.16175 6e-5,0.0156 0,0.0312 0,0.047 0,0.003 3e-5,0.005 0,0.007 0,0.13951 -0.008,0.27999 -0.0114,0.42168 -3e-5,0 0,0.003 0,0.003 -0.004,0.13933 -0.005,0.27986 0.004,0.42065 -0.0522,0.97776 -0.0621,2.14403 -0.032,2.88923 -0.0756,0.0618 -0.18733,0.10521 -0.31935,0.12299 -0.69427,0.0318 -1.39153,0.0293 -2.08516,-0.006 -0.46574,-0.0557 -0.93922,-0.072 -1.40197,0.0119 -0.005,0.0286 -0.0745,-0.0284 -0.0786,-0.003 v 0 c 0.0956,-0.36159 0.008,-0.73959 0.0558,-1.10742 -0.018,-0.26654 0.0297,-0.54223 -0.0398,-0.79944 -0.0101,-0.36827 -0.0148,-0.72956 -0.0403,-1.08365 0,-0.006 0,-0.0115 0,-0.0165 -0.003,-0.27053 -0.005,-0.54339 0.007,-0.81493 0.006,-0.13562 0.0164,-0.27074 0.0326,-0.40515 0.0161,-0.13425 0.0386,-0.26791 0.0692,-0.39997 0.0727,-0.20428 0.16044,-0.40893 0.2744,-0.5948 0.0379,-0.0618 0.0788,-0.12126 0.123,-0.17828 0.069,-0.082 0.14103,-0.16203 0.21704,-0.23823 0.22799,-0.22866 0.48951,-0.42349 0.79478,-0.53743 0.1546,-0.0772 0.33449,-0.13211 0.50747,-0.12144 z" />
    <path
       id="path1210-8-8-5"
       style="display:inline;fill:#bb8400;fill-opacity:1;stroke:none;stroke-width:0.264999;stroke-linecap:butt;stroke-linejoin:miter;stroke-miterlimit:4;stroke-dasharray:none;stroke-opacity:1"
       d="m 165.18622,106.79295 v 0.0217 l -0.85059,0.42581 v 1.11001 l -0.59118,0.31265 v -1.13327 l -0.86455,0.43305 v 1.15704 l -0.59428,0.31419 v -1.2237 l -0.86506,0.43305 v 1.24798 l -0.38293,0.20258 v -1.07539 h -1.04902 v 1.12706 h -0.65164 v -1.12293 h -1.04905 v 1.12552 c -0.24032,0 -0.48226,-0.003 -0.72191,-0.003 v -1.17305 h -1.04902 v 1.16478 c -0.20582,-0.003 -0.41199,-0.003 -0.61807,-0.006 v -1.09864 h -1.04902 v 1.08882 c -0.23379,-0.003 -0.48633,-0.005 -0.72141,-0.008 v -1.13119 h -1.04902 v 1.12034 c -0.23644,-0.003 -0.47911,-0.005 -0.71779,-0.008 v -1.11931 h -1.04902 v 1.10794 c -0.24384,-0.003 -0.47437,-0.006 -0.72142,-0.008 v -1.15084 h -1.04902 v 1.13998 c -0.008,-0.003 -0.0161,-0.007 -0.0227,-0.0124 l -0.42219,-0.22325 v -1.10277 l -0.61598,-0.3545 v 1.13171 l -0.42376,-0.22376 v -1.11052 l -0.61597,-0.3545 v 1.13895 l -0.42117,-0.22221 -0.0164,-1.07074 -0.61804,-0.47542 c -0.82548,-0.0283 -1.39838,-0.0289 -1.39838,-0.0289 l 0.0164,1.32137 h -1.05162 l 0.047,-1.3715 h -1.26968 l -0.047,1.3715 h -1.01235 l 0.047,-1.37046 h -1.26968 l -0.047,1.37046 h -0.91882 l 0.047,-1.28778 h -1.26971 c 0,1.28961 -0.10657,2.99905 -0.0692,4.15375 h -0.9617 v 0.91881 c -0.24038,0.004 -0.47887,0.004 -0.71726,0.007 v -0.93482 h -1.04955 v 0.94929 c -0.24268,0.003 -0.48019,-5.3e-4 -0.72142,0.005 v -1.00149 h -1.04902 v 1.00562 c -0.22304,0 -0.44952,0.004 -0.6718,0.004 v -1.06092 h -1.04902 v 1.05936 h -0.72141 v -1.10949 h -1.04955 v 1.10588 c -0.20635,0 -0.41151,-0.004 -0.61754,-0.005 v -1.04076 h -1.04955 v 1.03404 c -0.24021,-0.003 -0.48125,-0.004 -0.72138,-0.006 v -1.07952 h -1.04905 v 1.07332 c -0.2381,-0.003 -0.47887,3e-5 -0.71726,-0.004 v -1.07745 h -1.04955 v 1.07332 c -0.24045,0 -0.48027,-0.004 -0.72141,-0.004 v -1.12087 h -1.04902 v 1.27331 c -0.0322,-0.0204 -0.0664,-0.035 -0.10128,-0.0475 l -1.11879,3.14916 a 23.924169,23.005829 0 0 0 4.56871,5.02915 l -2.95436,26.26455 1.13639,0.34054 -2.36112,10.54561 -1.41901,12.61525 h 40.64661 l 1.83552,-0.46147 -3.961,-33.59381 c -0.044,-0.0123 -0.0961,-0.0272 -0.13951,-0.0393 -2.06097,-1.13187 -4.51215,-1.74073 -6.735,-2.71302 -2.53701,-0.64585 -4.63851,-2.40255 -7.38766,-2.98638 -2.76228,-0.88077 -5.44796,-1.73734 -8.20931,-2.60449 -1.86362,-0.35362 -3.46729,-0.96332 -4.70204,-2.36006 -1.14031,-0.73152 -2.35657,-1.28031 -3.57291,-1.81643 -0.28051,-0.81232 -0.4776,-1.62797 -0.77928,-2.40812 0.12457,-0.0124 0.24673,-0.0353 0.37621,-0.0786 0.0994,-0.0331 0.26842,0 0.37412,0 0.3065,0 0.95608,0.0651 1.21648,0 0.0861,-0.0214 0.16036,-0.0692 0.23357,-0.0935 0.0798,-0.0266 1.47894,-0.009 1.49657,0 0.21399,0.107 -0.19826,-0.0193 0.14054,0.0935 0.16838,0.0561 0.39283,-0.0561 0.56121,0 0.1257,0.0419 0.24614,0.0616 0.37415,0.0935 0.12716,0.0318 1.13689,0.042 1.26296,0 0.15999,-0.0533 0.0348,-0.039 0.18706,-0.14056 0.0611,-0.0407 0.71289,0 0.84182,0 0.48369,0 1.03061,0.07 1.49654,-0.0465 0.34639,-0.0866 0.69837,0.0717 1.02939,-0.0935 0.12885,-0.0645 0.55576,0.0128 0.80616,0.004 0.0135,0.53248 0.0293,1.06425 0.0786,1.59215 2.34381,0.0814 4.68725,0.16305 7.03109,0.24443 0.25392,0.0602 0.43305,0.0265 0.50541,-0.11628 l 2.59726,-0.66249 c 0.0182,-0.008 0.0335,-0.0193 0.0486,-0.0305 1.36827,0.0124 2.98069,0.0156 4.61727,0.0145 0.0808,-0.35052 0.003,-0.71522 0.0486,-1.07074 -0.0566,-0.659 -0.0363,-1.29033 -0.0817,-1.90324 -0.003,-0.54113 -0.0143,-1.09213 0.10906,-1.62161 0.0969,-0.27239 0.22024,-0.54506 0.39738,-0.7736 0.27599,-0.32793 0.60481,-0.62371 1.01182,-0.77566 0.15459,-0.0772 0.33451,-0.1321 0.50747,-0.12144 0.10377,0.006 0.20497,0.0363 0.29662,0.0992 0.35788,0.14507 0.69885,0.34803 0.95756,0.63717 0.28339,0.21847 0.35525,0.59304 0.54726,0.8785 0.21077,0.53377 0.0798,1.0986 0.11626,1.67277 -0.0539,1.0091 -0.0632,2.22812 -0.0294,2.96829 0.33798,-0.002 0.3805,-0.004 0.69969,-0.006 l -0.19068,-1.61747 a 23.924169,23.005829 0 0 0 8.01605,-13.6741 z" />
    <path
       id="path2725-4-7-4"
       style="color:#000000;font-style:normal;font-variant:normal;font-weight:normal;font-stretch:normal;font-size:medium;line-height:normal;font-family:sans-serif;font-variant-ligatures:normal;font-variant-position:normal;font-variant-caps:normal;font-variant-numeric:normal;font-variant-alternates:normal;font-variant-east-asian:normal;font-feature-settings:normal;font-variation-settings:normal;text-indent:0;text-align:start;text-decoration:none;text-decoration-line:none;text-decoration-style:solid;text-decoration-color:#000000;letter-spacing:normal;word-spacing:normal;text-transform:none;writing-mode:lr-tb;direction:ltr;text-orientation:mixed;dominant-baseline:auto;baseline-shift:baseline;text-anchor:start;white-space:normal;shape-padding:0;shape-margin:0;inline-size:0;clip-rule:nonzero;display:inline;overflow:visible;visibility:visible;isolation:auto;mix-blend-mode:normal;color-interpolation:sRGB;color-interpolation-filters:linearRGB;solid-color:#000000;solid-opacity:1;vector-effect:none;fill:#ffffff;fill-opacity:1;fill-rule:nonzero;stroke:none;stroke-width:0.264999;stroke-linecap:round;stroke-linejoin:bevel;stroke-miterlimit:4;stroke-dasharray:none;stroke-dashoffset:0;stroke-opacity:1;color-rendering:auto;image-rendering:auto;shape-rendering:auto;text-rendering:auto;enable-background:accumulate;stop-color:#000000"
       d="m 142.0605,80.018351 a 23.924169,23.005829 0 0 0 -19.68511,9.975101 c 0.15438,0.114602 0.32287,0.226086 0.52141,0.330213 -0.99763,-0.155051 -0.66839,0.381828 -1.13739,0.533818 a 23.924169,23.005829 0 0 0 -3.62304,12.167737 23.924169,23.005829 0 0 0 0.56896,4.86533 l 2.68769,6.689 a 23.924169,23.005829 0 0 0 5.18006,5.95881 l -1.58855,14.12265 c 1.58289,0.30941 4.10196,6.58429 5.30151,0.9865 1.45282,-4.18925 0.6369,-2.06127 1.83345,-1.09657 1.82915,0.93896 2.64562,1.70592 3.7786,1.20406 -0.96161,-2.96243 -1.53655,-3.87544 -1.26969,-5.94382 -0.78615,-2.02559 -0.16488,-4.35243 -1.25523,-6.32416 -0.62283,-1.3143 -0.8095,-2.68285 -1.40301,-3.92896 -0.59457,-1.04368 -1.03722,-2.03497 -1.77715,-2.90009 -0.85019,-1.57482 -0.0623,-1.98693 -1.56837,-3.46542 -1.12887,-1.40065 -1.5752,-2.85834 -2.36059,-4.20543 -0.51485,-1.81688 -0.83494,-3.03981 -1.55392,-5.12526 -0.53846,-1.24536 -1.89508,-2.21162 2.0221,-2.9192 2.32685,0.96589 2.52688,1.76336 4.05403,1.88929 1.40025,0.50268 3.08713,1.10225 4.78369,1.33687 1.95651,0.25931 3.79823,1.15235 5.84822,1.07642 2.0176,-0.39506 4.48767,1.15297 5.91642,-0.40567 0.86874,-1.42304 1.7879,-2.35002 2.77607,-3.15846 1.13172,-1.4052 1.90439,-2.607875 3.64214,-1.26865 1.37674,-0.807466 2.09325,-2.582362 4.50361,-2.089282 1.14628,-1.64256 2.22872,-3.238378 4.02198,-3.834908 0.51822,-0.486058 0.93007,-1.02244 1.25781,-1.596287 A 23.924169,23.005829 0 0 0 142.0605,80.018351 Z m -4.60489,2.505273 c 0.006,-3.2e-5 0.0114,2.41e-4 0.0169,5.29e-4 0.023,0 0.047,0.005 0.0713,0.01188 0.0485,0.009 0.0729,0.03095 0.0729,0.06615 0.005,0.0971 0.018,0.174657 0.0398,0.232026 0.022,0.0529 0.0684,0.08138 0.13901,0.08578 0.1147,0.005 0.23124,0.0089 0.35036,0.01344 h 0.42376 c 0.16761,-0.005 0.38153,-0.0089 0.6418,-0.01344 0.19854,-0.005 0.37705,0.01725 0.53588,0.06615 0.16325,0.0485 0.30001,0.134882 0.41032,0.258382 0.1147,0.123542 0.20283,0.293359 0.26458,0.509529 0.0618,0.21177 0.093,0.480716 0.093,0.807188 0,0.189707 -0.0156,0.35954 -0.0465,0.50953 -0.0309,0.15 -0.0703,0.282175 -0.11885,0.396875 -0.0441,0.110278 -0.0951,0.203009 -0.15246,0.278019 -0.0309,0.0441 -0.0883,0.07016 -0.17208,0.07906 -0.0794,0.005 -0.15881,-0.0039 -0.23823,-0.02635 -0.0794,-0.0265 -0.13449,-0.05952 -0.16537,-0.09922 -0.0309,-0.0441 -0.0111,-0.0928 0.0594,-0.145727 0.0706,-0.0529 0.14359,-0.121338 0.2186,-0.205158 0.075,-0.0882 0.13877,-0.187357 0.19171,-0.297657 0.0573,-0.114702 0.0863,-0.235884 0.0863,-0.363802 0,-0.0794 -0.0353,-0.154736 -0.10594,-0.225308 -0.0706,-0.0706 -0.18124,-0.127982 -0.33126,-0.172083 -0.14999,-0.0441 -0.34361,-0.06393 -0.58187,-0.05943 -0.13676,0.005 -0.27818,0.01114 -0.42373,0.01963 -0.14118,0.005 -0.2844,0.0089 -0.42995,0.01344 -0.14118,0 -0.28027,-0.0049 -0.41703,-0.01344 -0.13677,-0.009 -0.24691,-0.0639 -0.33073,-0.165364 -0.0838,-0.105889 -0.14812,-0.240342 -0.19225,-0.403593 -0.0397,-0.16764 -0.0617,-0.348472 -0.0661,-0.542602 -0.005,-0.19412 0.006,-0.385966 0.0331,-0.575675 0.005,-0.0177 0.029,-0.02909 0.0729,-0.03359 0.0167,-0.0038 0.0336,-0.0035 0.0506,-0.0052 z m 5.4927,0 c 0.006,-3.2e-5 0.0116,2.41e-4 0.0175,5.29e-4 0.023,0 0.0471,0.005 0.0713,0.01188 0.0485,0.009 0.0724,0.03136 0.0724,0.06666 0.005,0.0971 0.018,0.174141 0.0398,0.23151 0.0222,0.0529 0.0684,0.08138 0.13902,0.08578 0.11472,0.005 0.23177,0.0089 0.35089,0.01344 h 0.42322 c 0.16764,-0.005 0.38204,-0.0089 0.64233,-0.01344 0.19852,-0.005 0.37709,0.01725 0.53589,0.06615 0.16325,0.0485 0.30004,0.134882 0.41032,0.258382 0.11469,0.123542 0.20283,0.293359 0.26458,0.509529 0.0618,0.21177 0.0925,0.480716 0.0925,0.807188 0,0.189707 -0.0151,0.35954 -0.046,0.50953 -0.0309,0.15 -0.0708,0.282175 -0.11938,0.396875 -0.0441,0.110278 -0.0946,0.203009 -0.15192,0.278019 -0.0309,0.0441 -0.0882,0.07016 -0.17209,0.07906 -0.0794,0.005 -0.1588,-0.0039 -0.23823,-0.02635 -0.0794,-0.0265 -0.13448,-0.05952 -0.16536,-0.09922 -0.0309,-0.0441 -0.0111,-0.0928 0.0594,-0.145727 0.0706,-0.0529 0.14309,-0.121309 0.2181,-0.205158 0.075,-0.0882 0.13928,-0.187357 0.19222,-0.297657 0.0573,-0.114702 0.0858,-0.235884 0.0858,-0.363802 0,-0.0794 -0.0353,-0.154736 -0.10594,-0.225308 -0.0706,-0.0706 -0.18074,-0.127982 -0.33073,-0.172083 -0.14997,-0.0441 -0.34414,-0.06393 -0.58238,-0.05943 -0.13676,0.005 -0.27765,0.01114 -0.42322,0.01963 -0.14118,0.005 -0.28488,0.0089 -0.43048,0.01344 -0.14115,0 -0.28027,-0.0049 -0.41704,-0.01344 -0.13663,-0.009 -0.24688,-0.0639 -0.33073,-0.165364 -0.0837,-0.105889 -0.14758,-0.240372 -0.19171,-0.403593 -0.0397,-0.16764 -0.0618,-0.348472 -0.0661,-0.542602 -0.005,-0.19412 0.006,-0.385966 0.0331,-0.575675 0.005,-0.0177 0.029,-0.02857 0.0729,-0.03307 0.0167,-0.0038 0.033,-0.0056 0.0501,-0.0057 z m 3.70882,0.315743 v 5.3e-4 h 0.093 c 0.0309,2.9e-5 0.0616,0.0027 0.0925,0.0067 0.0309,0.005 0.0616,0.01357 0.0925,0.02687 0.22942,0.0794 0.41896,0.185441 0.56896,0.31781 0.15441,0.13235 0.27149,0.306792 0.35089,0.522964 0.0794,0.211757 0.11938,0.483045 0.11938,0.813906 0,0.110308 -0.018,0.240155 -0.0532,0.390155 -0.0309,0.14999 -0.0685,0.295487 -0.11266,0.436668 -0.0309,0.110276 -0.0859,0.181002 -0.16536,0.211873 -0.0794,0.0265 -0.1565,0.03979 -0.23151,0.03979 -0.0353,0 -0.0661,-0.0049 -0.0925,-0.01344 -0.022,-0.0132 -0.0305,-0.0403 -0.0265,-0.0801 0.005,-0.0441 0.0308,-0.105084 0.0791,-0.184483 0.0485,-0.0794 0.0972,-0.170349 0.14573,-0.27182 0.0485,-0.105878 0.0729,-0.211928 0.0729,-0.317809 0,-0.0926 -0.0156,-0.166918 -0.0465,-0.224277 -0.0265,-0.0618 -0.0815,-0.110972 -0.16536,-0.146243 -0.0794,-0.0353 -0.19825,-0.05925 -0.35708,-0.07235 -0.0309,-0.005 -0.0639,-0.0094 -0.0992,-0.01394 -0.0353,-0.005 -0.0707,-0.0089 -0.10594,-0.01291 -0.0309,-0.005 -0.0639,-0.05562 -0.0992,-0.152445 -0.0353,-0.0971 -0.0689,-0.216424 -0.0997,-0.357603 -0.0265,-0.141179 -0.0462,-0.282048 -0.0594,-0.423227 -0.0132,-0.141182 -0.0132,-0.258226 0,-0.350886 0.0132,-0.097 0.0462,-0.145727 0.0992,-0.145727 z m -5.53921,5.3e-4 c 0.0485,0 0.0949,0.0027 0.13901,0.0067 0.0485,0 0.0949,0.0094 0.13901,0.02687 0.22942,0.0794 0.41897,0.190066 0.56896,0.331245 0.15441,0.136742 0.27146,0.328623 0.35089,0.575675 0.0794,0.247047 0.11885,0.575699 0.11885,0.985989 0,0.35293 -0.0198,0.670541 -0.0594,0.952912 -0.0353,0.282329 -0.095,0.582036 -0.17881,0.899687 -0.0265,0.0971 -0.0949,0.163663 -0.20516,0.198953 -0.10588,0.0309 -0.19632,0.04599 -0.2713,0.04599 -0.0353,0 -0.073,-0.009 -0.11266,-0.02687 -0.0353,-0.02199 -0.0438,-0.0638 -0.0265,-0.125574 0.0177,-0.0662 0.0512,-0.160711 0.0998,-0.284221 0.0485,-0.127921 0.10128,-0.275743 0.15865,-0.443383 0.0573,-0.16764 0.10599,-0.348991 0.14573,-0.543121 0.0441,-0.198512 0.0661,-0.401397 0.0661,-0.608748 0,-0.180869 -0.0354,-0.306668 -0.10594,-0.377238 -0.0706,-0.075 -0.22531,-0.127764 -0.46355,-0.158647 -0.0309,-0.005 -0.0639,-0.0094 -0.0992,-0.01394 -0.0353,-0.005 -0.0707,-0.0089 -0.10594,-0.01291 -0.0309,-0.005 -0.0639,-0.05562 -0.0992,-0.152445 -0.0353,-0.0971 -0.0684,-0.215905 -0.0992,-0.357084 -0.0265,-0.141179 -0.0462,-0.282567 -0.0594,-0.423746 -0.0132,-0.14119 -0.0132,-0.258226 0,-0.350885 0.0132,-0.097 0.0463,-0.145209 0.0992,-0.145209 z m -3.39204,1.79007 v 0 c 0.0285,3.4e-5 0.0558,0.0029 0.0822,0.0098 0.0573,0.009 0.0858,0.03095 0.0858,0.06615 0,0.269139 0.0441,0.48532 0.13229,0.648538 0.0882,0.158832 0.20992,0.238229 0.36433,0.238229 0.0926,0 0.17616,0.044 0.25114,0.132291 0.075,0.0882 0.1347,0.198877 0.17881,0.331248 0.0485,0.132339 0.0752,0.264504 0.0796,0.396875 0.009,0.13235 -0.009,0.242488 -0.0532,0.330729 -0.0441,0.0882 -0.11893,0.132292 -0.22479,0.132292 -0.19412,0 -0.36166,-0.05278 -0.50281,-0.158647 -0.14118,-0.11027 -0.25824,-0.253479 -0.35089,-0.429948 -0.0882,-0.180872 -0.15431,-0.377364 -0.19844,-0.589113 -0.0397,-0.216191 -0.0594,-0.432369 -0.0594,-0.648539 0,-0.127918 0.003,-0.213736 0.007,-0.257865 0.005,-0.0441 0.0122,-0.08639 0.0206,-0.12609 0.009,-0.0353 0.0413,-0.05735 0.0987,-0.06615 0.0308,-0.007 0.0603,-0.0098 0.0889,-0.0098 z m 5.4932,0 c 0.0287,0 0.0567,0.0028 0.0832,0.0098 0.0573,0.009 0.0858,0.03095 0.0858,0.06615 0,0.269139 0.044,0.48532 0.13229,0.648538 0.0882,0.158832 0.20939,0.238229 0.3638,0.238229 0.0926,0 0.17667,0.044 0.25167,0.132291 0.075,0.0882 0.13468,0.19839 0.17878,0.330729 0.0485,0.132342 0.0747,0.265023 0.0791,0.397394 0.009,0.13235 -0.009,0.242488 -0.0527,0.330729 -0.0441,0.0882 -0.11941,0.132292 -0.2253,0.132292 -0.19412,0 -0.36163,-0.05278 -0.50281,-0.158647 -0.14118,-0.11027 -0.25823,-0.253479 -0.35089,-0.429948 -0.0882,-0.180872 -0.15431,-0.377364 -0.19844,-0.589113 -0.0397,-0.216191 -0.0594,-0.432369 -0.0594,-0.648539 0,-0.127918 0.003,-0.214241 0.007,-0.258381 0.005,-0.0441 0.0111,-0.0859 0.0196,-0.125574 0.009,-0.0353 0.0424,-0.05735 0.0998,-0.06615 0.0309,-0.007 0.0602,-0.0098 0.0889,-0.0098 z m 8.76639,1.981792 c 0.49255,-0.01254 0.56078,0.616128 0.72141,0.988568 0.26522,0.376402 0.45186,0.766948 0.65061,1.164789 0.12689,0.254013 0.34126,0.653624 0.3452,0.778764 0.10218,0.26534 -0.3914,1.299699 -0.24185,1.52032 -0.90144,0.14779 -0.9611,-1.305746 -1.61954,-1.912546 -0.49406,-0.206169 -0.69909,-0.713283 -0.71726,-1.216462 -0.092,-0.527219 0.0532,-1.325171 0.72863,-1.30638 0.0384,-0.0085 0.0748,-0.01378 0.10904,-0.01601 0.008,-5.3e-4 0.0315,-0.003 0.0238,-0.0011 z m -20.39618,0.619083 c 0.17394,-0.01841 0.35415,0.05499 0.41032,0.239779 0.0909,0.373941 0.0293,0.770744 -0.1111,1.124995 -0.13052,0.205639 -0.0419,0.580514 -0.2558,0.689364 -0.19807,-0.265949 -0.15118,-0.603253 -0.15089,-0.911572 -0.003,-0.0403 -0.007,-0.08063 -0.0145,-0.120406 -0.34539,-0.01561 -0.21622,-0.480055 -0.25011,-0.710034 0.0308,-0.183435 0.19814,-0.293714 0.37205,-0.312126 z m -3.34862,1.267106 c 0,0 0.11422,0.173646 0.28835,0.42323 -0.18513,0.224866 -0.28761,0.513892 -0.28835,0.813387 1.9e-4,0.682689 0.51814,1.236033 1.15703,1.236099 0.23106,-0.0016 0.45638,-0.07695 0.64698,-0.216524 0.27398,0.264885 0.5537,0.498088 0.82116,0.642855 0.0111,0.006 0.0225,0.01505 0.0336,0.02119 -0.0716,0.163624 -0.10912,0.337765 -0.1106,0.513665 1.09141,0.425355 0.21352,1.362736 1.58494,1.428853 0.7094,0.495954 0.6817,-0.102126 0.95705,-0.290422 0.24458,0.152886 0.46159,0.264038 0.62785,0.290422 2.19533,1.538793 -4.08995,5.098508 -5.27357,4.539258 -1.0619,-0.70784 -1.40096,-1.124593 -2.19831,-1.523423 -0.88858,-0.444434 -2.82774,-0.94206 -2.82774,-0.94206 0,0 0.40328,-1.53784 0.81804,-2.201934 0.37714,-0.603903 1.07892,-0.95404 1.47278,-1.54719 0.37711,-0.567926 0.41801,-1.322277 0.81804,-1.874306 0.38592,-0.532612 1.47277,-1.313098 1.47277,-1.313098 z m 16.70699,0.612883 c 0.19695,0.01082 0.38877,0.08283 0.57568,0.224793 l 0.0935,0.425812 1.08675,0.608232 c -0.60087,0.638617 -1.53623,0.350848 -2.3027,0.292489 -0.6065,-0.143229 -1.15803,-0.04579 -1.61901,0.211357 -0.75679,-0.61809 -0.11255,-1.661488 0.78237,-1.329118 0.47472,-0.215458 0.94028,-0.457896 1.38338,-0.433565 z m 5.42552,0.71365 c 0.52199,0.0021 1.02645,0.457002 0.51263,1.023194 0.14665,0.771919 0.96649,0.510381 1.55493,1.103291 0.32451,0.479582 -0.33714,2.286537 -1.02836,2.739369 -0.56362,-1.507299 -1.11019,-3.021115 -1.69034,-4.522205 0.14337,-0.23431 0.38512,-0.337442 0.62632,-0.34313 0.008,-1.96e-4 0.0164,-5.29e-4 0.0249,-5.29e-4 z m -13.23123,0.182936 c -0.004,-7.94e-4 0.008,-1.6e-5 0.0124,0 0.25225,0.0011 0.64524,0.236553 0.78446,0.408244 0.6713,0.748062 -0.1633,1.651418 -0.40412,2.397786 0.0474,0.58787 -0.54052,0.444431 -0.51469,-0.04186 0.27233,-0.714978 0.66217,-1.688684 -0.0501,-2.309934 -0.0923,-0.306517 -0.0124,-0.430977 0.13589,-0.451135 0.0116,-0.0016 0.0483,-2.65e-4 0.0362,-0.0026 z m 23.87192,0.598413 c 0.27109,0.0016 0.38108,0.659331 0.23151,0.911056 -0.14256,0.445608 -0.86204,0.247343 -0.90538,0.775663 -0.005,0.517869 -0.43907,0.874538 -0.94567,0.749308 -0.52171,-0.0474 -0.59785,-0.711994 -1.04489,-0.894004 0.79525,-0.4944 1.65102,-0.884594 2.43189,-1.403014 0.0811,-0.0922 0.15486,-0.133913 0.2196,-0.138493 0.004,-2.65e-4 0.009,-5.29e-4 0.013,-5.29e-4 z m -5.66116,0.192236 c 0.006,-2.33e-4 0.0116,-5.1e-5 0.0175,0 0.0532,0 0.11046,0.0132 0.17258,0.04031 0.13311,0.592511 -0.29797,1.222733 0.0315,1.785422 0.31443,0.27196 0.36693,0.906679 -0.0579,1.095542 -0.35044,-0.0573 -0.62592,-0.379651 -0.91413,-0.579811 -0.327,-0.442391 -0.13034,-1.02167 0.076,-1.46916 0.14851,-0.285035 0.31374,-0.857641 0.67437,-0.872299 z m -14.60582,1.068152 c 0.0127,1.11e-4 0.0249,5.29e-4 0.0372,0.0011 0.3959,0.01527 0.67382,0.220417 0.50179,0.790131 -0.055,0.846084 -0.0864,1.703136 0.0822,2.534729 l -1.11466,0.608232 -1.11467,-0.608232 c 0.49483,-0.944401 -0.69702,-2.253192 0.43358,-2.975012 0.2922,-0.184618 0.78414,-0.354346 1.17461,-0.350882 z m 6.02443,0.06305 c 0.0116,-5.3e-4 0.0225,-1.64e-4 0.0331,5.29e-4 v 5.29e-4 c 0.28096,0.01749 0.2128,0.40672 0.24235,0.51263 0.355,0.197771 0.80775,0.01532 1.14724,0.257866 0.10274,0.452069 1.02264,1.853612 -0.0481,1.440222 -1.08905,-1.396439 -2.6054,1.538126 -2.32129,-1.699638 0.48466,-0.373539 0.77359,-0.505685 0.9467,-0.512115 z m -10.61743,2.97036 c 0,0 1.02623,0.282821 2.22001,0.53847 1.08206,0.259336 0.79994,1.050007 1.69913,1.051615 2.04552,-0.199371 1.3105,-0.274523 1.57405,-0.693496 0.55436,-0.06005 0.73862,-0.527331 1.19373,-0.15193 0.14213,0.117224 0.32506,-0.183483 0.57671,-0.06615 0.16123,0.391877 0,0 1.05214,0.724503 1.12863,0.132061 1.03095,-0.309242 1.05108,-0.699183 0.62193,0.501976 1.16896,1.076164 1.74049,1.669148 0.96456,0.582271 2.36018,2.176838 1.31204,3.216855 -1.27151,0.37952 -1.73792,1.5299 -2.77088,2.26757 -1.2814,0.75329 -2.48502,-0.60216 -3.82611,-0.35295 -1.23539,0.11407 -2.35384,-0.44601 -3.49438,-0.82114 -1.62467,-0.65553 -3.34981,-0.97524 -5.01571,-1.49397 -1.90285,-0.256587 -0.79372,-2.074256 0.0511,-2.857706 0.13121,-0.0927 0.2318,-0.190511 0.30903,-0.29042 z m 12.07264,1.08779 c 0.0249,-7.94e-4 0.0484,0.0011 0.0672,0.0078 0.0238,0.008 0.0233,0.04149 0.0346,0.05839 0,0.02331 0.0175,0.006 0.0238,0.01188 0.006,0.006 -0.004,0.01685 0,0.02326 0.0124,0.01881 0.0374,0.03793 0.0465,0.04703 0.0257,0.02569 0.0447,0.06794 0.0703,0.09353 0.009,0.0088 0.0119,-0.0011 0.0145,-0.0041 0.003,-0.0011 0.004,0.0019 0.009,0.0155 0.003,0.007 -0.004,0.01635 0,0.02326 0.007,0.01381 0.0463,0.008 0.0584,0.01188 0.0183,0.006 0.008,0.02434 0.0238,0.03514 0.0222,0.01479 0.0321,0.04529 0.0584,0.05839 0.007,0.003 0.0169,-0.004 0.0233,0 0.0108,0.007 0.0327,0.04171 0.047,0.04651 0.0486,0.01611 0.0395,-0.01725 0.0935,0.02326 0.014,0.01061 0.0342,0.01106 0.0465,0.02326 0.003,0.003 -0.0196,0.179581 -0.0233,0.187071 -0.003,0.003 -0.009,-0.003 -0.0119,0 -0.007,0.007 -0.007,0.135813 -0.0119,0.140557 -0.003,0.003 -0.009,-0.003 -0.0119,0 -0.006,0.006 0,0.06018 0,0.07028 v 0.385506 c 0,0.0404 0.0148,0.169474 0,0.198954 -0.0349,0.0697 -0.0339,0.160514 -0.0584,0.234095 -0.008,0.02331 0.0108,0.05995 0,0.08165 -0.005,0.01 -0.0183,0.01347 -0.0233,0.02326 -0.0153,0.0307 -0.0119,0.0713 -0.0119,0.116789 -0.0116,-0.01561 -0.0214,-0.03332 -0.0351,-0.04702 -0.0164,-0.0164 -0.1224,-0.01714 -0.12867,-0.02326 -0.003,-0.003 0,-0.007 0,-0.01138 -0.004,-0.004 -0.007,-0.009 -0.0119,-0.01188 -0.0686,-0.0457 -0.12303,-0.08481 -0.18706,-0.116789 -0.0148,-0.007 -0.0212,-0.02593 -0.0346,-0.03514 -0.006,-0.004 -0.0167,0.003 -0.0238,0 -0.0254,-0.0127 -0.0417,-0.06495 -0.0584,-0.08165 -0.0106,-0.01061 -0.0439,-0.02794 -0.0584,-0.03514 -0.006,-0.003 -0.0422,-0.05029 -0.0584,-0.05839 -0.003,-0.003 -0.008,0 -0.0119,0 -0.008,-0.004 -0.0159,-0.007 -0.0233,-0.01188 -0.007,-0.005 -0.004,-0.02056 -0.0119,-0.02326 -0.0111,-0.004 -0.0238,0.003 -0.0352,0 -0.0143,-0.004 -0.0302,-0.03084 -0.0346,-0.03514 -0.01,-0.01 -0.0579,-0.02894 -0.0703,-0.03514 -0.0175,-0.009 -0.0314,-0.03611 -0.047,-0.04651 -0.006,-0.004 -0.0304,-0.007 -0.0351,-0.01188 -0.007,-0.007 -0.0185,-0.02434 -0.0346,-0.03514 -0.023,-0.01529 -0.0289,-0.003 -0.047,-0.01138 -0.0214,-0.0109 -0.003,-0.02434 -0.0228,-0.03514 -0.007,-0.003 -0.0177,0.006 -0.0233,0 -0.003,-0.003 0,-0.008 0,-0.01188 -0.004,-0.004 -0.007,-0.008 -0.0124,-0.01138 -0.0119,-0.008 -0.0512,-0.01606 -0.0584,-0.02326 -0.0241,-0.0241 0.0369,1.01e-4 -0.0119,-0.02326 -0.0295,-0.01479 -0.0533,-0.04449 -0.0811,-0.05839 -0.009,-0.005 -0.0259,0.005 -0.0352,0 -0.004,-0.003 0,-0.06338 0,-0.07028 0,-0.0716 0.0682,-0.229672 0.0936,-0.280602 0.0101,-0.019 0.0246,-0.03849 0.0346,-0.0584 0.004,-0.007 -0.005,-0.02974 0,-0.03514 0.003,-0.003 0.0106,0.003 0.0119,0 0.007,-0.014 -0.005,-0.03223 0,-0.04702 0.003,-0.01061 0.0188,-0.01347 0.0238,-0.02326 0.0111,-0.02249 0.0111,-0.05715 0.0233,-0.08165 0.0188,-0.0374 -0.0188,-0.103151 0,-0.14056 0.0268,-0.0535 -0.005,0.04956 0.0233,-0.03514 0.0204,-0.0609 -0.0172,-0.251519 0,-0.268719 0.0325,-0.0325 0.0201,0.02035 0.0233,0.02326 0.009,0.009 0.0206,-0.01029 0.0238,-0.01188 0.0111,-0.006 0.0335,0 0.0465,0 0.0233,0 0.0981,0.01111 0.11679,0 0.0143,-0.008 0.022,-0.02514 0.0351,-0.03514 0.014,-0.01029 0.0701,4.7e-5 0.0822,-0.01138 0.003,-0.003 -0.003,-0.008 0,-0.01188 0.0122,-0.02461 0.0233,4.7e-5 0.0352,-0.01138 0.003,-0.003 -0.003,-0.009 0,-0.01188 0.008,-0.008 0.0236,0 0.0351,0 0.0264,0 0.0607,-0.0042 0.0946,-0.0062 0.008,-7.94e-4 0.0169,-0.0013 0.0254,-0.0016 z m 1.53736,0.02066 c 0.006,-1.46e-4 0.0114,0 0.0164,0 0.0222,0 0.0456,0.0011 0.0693,0.0036 v -5.29e-4 c 0.14161,0.0127 0.30652,0.06708 0.4966,0.173633 0.95851,0.687649 2.84716,0.664562 1.49344,1.039212 -0.34803,1.035 -2.09095,2.849316 -2.50835,0.90692 -0.32912,-0.67564 -0.34589,-2.038498 0.38446,-2.119249 0.0159,-0.0019 0.0317,-0.0032 0.048,-0.0036 z" />
    <path
       style="fill:none;fill-opacity:1;stroke:#000000;stroke-width:4.25552;stroke-linecap:round;stroke-linejoin:bevel;stroke-miterlimit:4;stroke-dasharray:none;stroke-opacity:1"
       d="m 142.06076,80.0186 a 23.924169,23.005829 0 0 1 23.92424,23.00643 23.924169,23.005829 0 0 1 -8.34963,17.44218 l 5.87607,49.83686 h -42.53642 l 5.59802,-49.7657 a 23.924169,23.005829 0 0 1 -8.43652,-17.51334 23.924169,23.005829 0 0 1 23.92424,-23.00643 z"
       id="path39516-9-7" />
    <path
       sodipodi:nodetypes="scccccccccccccccccccccccccccccsscccccccccccc"
       d="m 139.52745,136.31649 c -0.91751,-0.12614 -1.84702,-0.0472 -2.47847,0.74191 -0.76836,1.23422 -0.87795,2.66158 -1.30971,4.03966 -0.32301,1.01038 -1.22825,2.00168 -1.64502,2.71512 -0.72069,2.09519 0.43025,0.87336 -0.13885,1.3225 -1.28479,0.6016 -0.53637,0.63618 -1.13335,1.82301 -0.65064,1.49509 -1.09901,3.50186 -1.43492,5.24224 -0.42929,1.29597 -0.57913,3.62886 -0.57913,3.62886 -0.37853,1.26519 -0.26248,3.25035 -0.93107,4.51219 -0.87195,1.8214 1.32316,1.91111 2.53474,1.82759 1.50032,0.0873 2.81072,-0.651 4.33043,-0.54846 1.35195,-0.41242 2.96429,0.62673 4.02971,-0.64661 0.76862,-1.09552 2.11539,-1.95793 2.14505,-3.43792 0.35433,-1.22333 1.64591,-1.92417 1.93316,-3.19268 0.74263,0.32756 0.14864,1.88989 0.0549,2.64284 -0.62729,2.21228 0.80353,1.10254 1.34372,1.55458 -0.30787,1.45768 1.49827,0.59568 1.56447,1.75307 -0.37783,1.51126 0.86448,2.24488 2.21004,1.66889 1.30129,-0.4908 3.02681,0.75233 4.02407,-0.5592 0.66303,-1.78477 -1.67212,-1.26643 -2.66421,-1.4306 -0.95523,-0.51683 0.47414,-0.13959 0.48189,-0.81463 0.0302,-1.29875 -0.58008,-2.50719 -0.76457,-3.78137 -0.22556,-1.439 -0.45409,-2.88404 -0.73185,-4.30091 -0.78153,-1.07954 0.41422,-1.71679 0.59049,-2.66083 -0.0954,-2.02423 -1.9631,-0.59505 -3.08086,-0.79391 -1.39355,-0.36995 -2.76935,-0.57162 -4.06654,-1.42779 -0.6634,-0.49913 -2.08347,-0.50073 -1.71899,-1.07231 1.80364,0.23851 0.56163,-1.68054 0.6214,-2.69736 0.36816,-1.62134 1.10081,-3.16332 1.34205,-4.82383 -1.00314,-0.60987 -2.17695,-0.8195 -3.31386,-1.03344 -0.38304,-0.0941 -0.79763,-0.19343 -1.21471,-0.2506 z m 0.55519,14.89381 c 0.0875,-0.005 0.17804,-1e-4 0.26005,0.0343 0.16471,0.0886 0.3582,0.0861 0.53925,0.1124 0.0883,0.0193 0.18909,0.0188 0.26762,0.0643 -0.0437,0.0351 -0.12239,0.0578 -0.18466,0.0671 -0.12575,-0.0158 -0.23385,0.0607 -0.34977,0.0935 -0.0844,0.0614 -0.18968,0.0894 -0.267,0.16119 -0.0757,0.0929 -0.1927,-0.0167 -0.28447,0.0233 -0.0556,0.0485 -0.12929,0.0653 -0.19697,0.09 -0.0757,0.0193 -0.12243,0.0887 -0.1978,0.10932 -0.3527,0.0596 -0.0587,-1.01323 0.41375,-0.7554 z"
       style="fill:#ffffff;fill-opacity:1;stroke:none;stroke-width:0.116173px;stroke-linecap:butt;stroke-linejoin:miter;stroke-opacity:1"
       id="path1143-2-2-0-0-5-28" />
    <g
       aria-label="Keyhole"
       transform="translate(-34.64396,242.90091)"
       id="text42420-3-6"
       style="font-size:16.9333px;line-height:1.25;font-family:Bahnschrift;-inkscape-font-specification:'Bahnschrift, Normal';letter-spacing:0px;word-spacing:0px;white-space:pre">
      <path
         d="m 146.56655,-91.445602 -1.53966,5.95769 3.78196,-3.605938 1.4264,1.496026 -7.82123,7.457217 -1.4264,-1.496026 3.56054,-3.394831 -5.79143,1.055046 -1.69456,-1.777279 6.26138,-0.897645 1.42862,-6.697205 z"
         style="font-weight:bold;font-family:Consolas;-inkscape-font-specification:'Consolas Bold'"
         id="path41140" />
      <path
         d="m 136.07026,-98.472332 q 0.1786,-0.104065 0.47269,-0.256282 0.28992,-0.15936 0.55244,-0.28362 l 2.78063,4.772157 q 0.47864,-0.278895 0.75973,-0.634068 0.27693,-0.362316 0.37295,-0.772334 0.0847,-0.412998 -0.003,-0.859411 -0.092,-0.453556 -0.35843,-0.910769 -0.30804,-0.528652 -0.73628,-1.082955 -0.43955,-0.557284 -1.00409,-1.099155 l 1.38592,-0.807551 q 0.24093,0.23283 0.49671,0.523987 0.25577,0.291158 0.50558,0.604929 0.24982,0.313771 0.47522,0.651337 0.23254,0.333403 0.42402,0.662024 0.48286,0.828698 0.63008,1.623308 0.14721,0.794609 -0.0436,1.518229 -0.19795,0.727783 -0.7351,1.366125 -0.53714,0.638343 -1.43013,1.15867 -0.88585,0.516164 -1.74892,0.693694 -0.87021,0.181692 -1.64266,0.03848 -0.77959,-0.139054 -1.42451,-0.605379 -0.65623,-0.469307 -1.10996,-1.247997 -0.44956,-0.771547 -0.55216,-1.506023 -0.10975,-0.730314 0.0858,-1.380132 0.19553,-0.649818 0.66776,-1.202489 0.47223,-0.552672 1.17948,-0.964771 z m 0.78229,1.917391 q -0.4328,0.242613 -0.68053,0.540071 -0.25487,0.301621 -0.34549,0.622367 -0.0948,0.313602 -0.0408,0.636205 0.0498,0.315459 0.22467,0.615505 0.38296,0.657243 1.07148,0.820654 0.68138,0.167573 1.52729,-0.220056 z"
         style="font-weight:bold;font-family:Consolas;-inkscape-font-specification:'Consolas Bold'"
         id="path41142" />
      <path
         d="m 137.1429,-107.34969 q 1.17155,0.10336 2.0939,0.32531 0.92788,0.21163 1.61542,0.59965 0.69545,0.38563 1.16015,0.97929 0.47021,0.58335 0.72164,1.41431 0.0599,0.19784 0.10795,0.44244 0.0536,0.23429 0.0883,0.4916 l -1.63818,0.49567 q -0.0129,-0.0998 -0.033,-0.22326 -0.0146,-0.1338 -0.0474,-0.27073 -0.0249,-0.13933 -0.0577,-0.27626 -0.0352,-0.14484 -0.0711,-0.26355 -0.10057,-0.33238 -0.31339,-0.57897 -0.21283,-0.24659 -0.51417,-0.41456 -0.29581,-0.17829 -0.67223,-0.28035 -0.36851,-0.10446 -0.78596,-0.14228 l -7.0755,5.62214 -0.65132,-2.15258 4.05315,-3.04908 1.32113,-0.94396 -1.55713,-0.0644 -5.13175,-0.28725 -0.62737,-2.07344 z"
         style="font-weight:bold;font-family:Consolas;-inkscape-font-specification:'Consolas Bold'"
         id="path41144" />
      <path
         d="m 136.7343,-116.78049 -5.4631,0.33809 q -1.37816,0.0853 -1.31483,1.10859 0.0317,0.51165 0.47339,0.9565 0.44122,0.4366 1.18311,0.91258 l 5.30631,-0.32838 0.12461,2.01359 -11.66068,0.72163 -0.12461,-2.01359 2.87184,-0.17773 1.52458,0.005 q -0.32117,-0.23693 -0.57684,-0.4862 -0.26391,-0.24875 -0.44786,-0.54388 -0.18394,-0.29512 -0.28843,-0.64487 -0.11273,-0.34924 -0.13929,-0.77836 -0.0398,-0.64369 0.14511,-1.13561 0.17669,-0.49141 0.54463,-0.83726 0.3597,-0.34533 0.89465,-0.53584 0.5262,-0.19824 1.19464,-0.23961 l 5.62816,-0.3483 z"
         style="font-weight:bold;font-family:Consolas;-inkscape-font-specification:'Consolas Bold'"
         id="path41146" />
      <path
         d="m 133.8146,-129.27893 q 0.9778,0.16839 1.74492,0.58575 0.75897,0.41596 1.24769,1.03708 0.48872,0.62111 0.676,1.43363 0.18729,0.81251 0.0203,1.78216 -0.15857,0.92075 -0.55235,1.59964 -0.39377,0.67889 -1.01041,1.09288 -0.62479,0.41258 -1.46962,0.54396 -0.85299,0.12997 -1.92041,-0.0538 -0.98594,-0.16979 -1.74491,-0.58574 -0.75757,-0.42411 -1.23814,-1.04383 -0.47917,-0.62786 -0.65831,-1.43897 -0.18728,-0.81251 -0.0231,-1.76586 0.15997,-0.92891 0.5619,-1.60639 0.39377,-0.67889 1.01856,-1.09147 0.62478,-0.41259 1.46822,-0.53582 0.83669,-0.13278 1.87966,0.0468 z m -0.30752,2.07808 q -1.28743,-0.2217 -2.01533,0.15634 -0.73466,0.36849 -0.89743,1.31369 -0.0898,0.52149 0.0508,0.92324 0.14056,0.40176 0.45839,0.6998 0.30969,0.29663 0.76264,0.4921 0.45436,0.18731 0.99214,0.27992 1.29558,0.22311 2.0454,-0.18472 0.74166,-0.40923 0.89742,-1.31369 0.0856,-0.49704 -0.0468,-0.89739 -0.14056,-0.40175 -0.45165,-0.69024 -0.31923,-0.2899 -0.78034,-0.48676 -0.4611,-0.19687 -1.01518,-0.29229 z"
         style="font-weight:bold;font-family:Consolas;-inkscape-font-specification:'Consolas Bold'"
         id="path41148" />
      <path
         d="m 130.35595,-136.71393 -0.93441,2.18126 -1.44404,-0.61859 1.74835,-4.08132 9.29507,3.98181 0.95394,-2.22686 1.44404,0.6186 -2.81624,6.57418 -1.44404,-0.61859 1.04835,-2.44727 z"
         style="font-weight:bold;font-family:Consolas;-inkscape-font-specification:'Consolas Bold'"
         id="path41150" />
      <path
         d="m 142.97126,-147.46166 q 0.16605,0.1231 0.42189,0.33333 0.26077,0.2036 0.47848,0.39586 l -3.2891,4.43702 q 0.44503,0.3299 0.88226,0.44817 0.44215,0.11162 0.85681,0.0382 0.41294,-0.085 0.78854,-0.34176 0.38052,-0.26341 0.69565,-0.68852 0.36436,-0.49152 0.70489,-1.10363 0.33882,-0.62368 0.61419,-1.35615 l 1.28859,0.95522 q -0.11896,0.31321 -0.28567,0.66307 -0.16672,0.34986 -0.35657,0.70315 -0.18984,0.3533 -0.41118,0.69354 -0.2147,0.34516 -0.44119,0.65071 -0.57117,0.7705 -1.24335,1.2191 -0.67218,0.4486 -1.41241,0.55858 -0.74687,0.10506 -1.54529,-0.13686 -0.79843,-0.24193 -1.62871,-0.8574 -0.82364,-0.61056 -1.3271,-1.3337 -0.5101,-0.72806 -0.68306,-1.49439 -0.17961,-0.77126 -0.005,-1.54781 0.17252,-0.78811 0.70922,-1.51212 0.53177,-0.71736 1.16628,-1.10126 0.62787,-0.38882 1.30214,-0.46536 0.67427,-0.0765 1.36837,0.13952 0.69409,0.21605 1.35168,0.7035 z m -1.45359,1.47495 q -0.39361,-0.30207 -0.76465,-0.41244 -0.37768,-0.1153 -0.70817,-0.0721 -0.32557,0.0366 -0.60074,0.21338 -0.27025,0.17019 -0.47705,0.44917 -0.45299,0.61108 -0.33168,1.30825 0.11468,0.69225 0.80445,1.31678 z"
         style="font-weight:bold;font-family:Consolas;-inkscape-font-specification:'Consolas Bold'"
         id="path41152" />
    </g>
    <g
       aria-label="Vision"
       transform="translate(-34.64396,242.90091)"
       id="text42420-3-9-1"
       style="font-weight:bold;font-size:16.9333px;line-height:1.25;font-family:consolas;-inkscape-font-specification:'consolas Bold';letter-spacing:1.905px;word-spacing:0px;white-space:pre">
      <path
         d="m 209.60903,-140.45012 -1.60668,-2.16425 6.71044,-9.09038 1.37504,1.85222 -4.13554,5.34588 -1.36288,1.7429 2.17709,-0.85421 6.20448,-2.35088 1.29126,1.73936 z"
         id="path41155" />
      <path
         d="m 224.67697,-134.09195 q -0.25568,0.0953 -0.51501,0.086 -0.25933,-0.009 -0.49329,-0.11621 -0.22333,-0.10209 -0.40776,-0.28926 -0.17669,-0.19005 -0.27483,-0.45348 -0.0981,-0.26343 -0.0918,-0.53051 0.017,-0.26222 0.11621,-0.49329 0.10984,-0.22621 0.29989,-0.4029 0.19005,-0.17669 0.44574,-0.27194 0.25568,-0.0953 0.51501,-0.086 0.25933,0.009 0.4904,0.10846 0.23396,0.10695 0.41065,0.29701 0.18732,0.19491 0.28546,0.45834 0.0981,0.26343 0.0811,0.52565 -0.009,0.25933 -0.1191,0.48554 -0.10695,0.23396 -0.297,0.41065 -0.19005,0.17668 -0.44574,0.27194 z m -4.40542,-0.74104 -0.82845,-2.22367 1.47212,-0.54844 1.55009,4.16066 -6.39983,2.3843 0.84577,2.27016 -1.47212,0.54845 -2.49688,-6.702 1.47211,-0.54845 0.92948,2.49485 z"
         id="path41157" />
      <path
         d="m 219.26722,-117.55996 q -0.71727,0.0544 -1.25284,-0.22829 -0.52669,-0.27512 -0.88828,-0.77836 -0.35271,-0.49562 -0.54356,-1.15279 -0.19847,-0.64829 -0.25103,-1.34083 -0.0701,-0.92339 -0.0357,-1.67227 0.0261,-0.74827 0.14095,-1.42034 l 1.81379,-0.13768 q -0.26271,0.79939 -0.35291,1.57739 -0.0813,0.78562 -0.0294,1.46992 0.0601,0.79147 0.33683,1.16019 0.28561,0.37633 0.68959,0.34567 0.18963,-0.0144 0.34001,-0.10873 0.15039,-0.0943 0.27303,-0.33582 0.1315,-0.23387 0.24861,-0.65736 0.12536,-0.42411 0.26429,-1.10631 0.1262,-0.63148 0.30488,-1.11769 0.18756,-0.47858 0.46121,-0.80616 0.27364,-0.32758 0.64925,-0.51363 0.38447,-0.17844 0.91211,-0.21849 0.51116,-0.0388 0.98213,0.15762 0.47097,0.19643 0.84342,0.62422 0.38131,0.43541 0.63112,1.10468 0.24981,0.66927 0.31927,1.58441 0.0601,0.79147 0.0239,1.40782 -0.0361,0.61636 -0.0994,1.0938 l -1.64066,0.12454 q 0.1764,-0.7348 0.21891,-1.37651 0.0514,-0.63409 0.004,-1.25243 -0.0469,-0.61833 -0.29832,-0.98068 -0.25076,-0.35411 -0.6465,-0.32407 -0.18962,0.0144 -0.33239,0.0999 -0.14277,0.0855 -0.26665,0.31046 -0.12326,0.23324 -0.2505,0.63262 -0.11836,0.407 -0.25093,1.06384 -0.15104,0.74116 -0.35258,1.25398 -0.1933,0.51219 -0.46757,0.83152 -0.27365,0.32758 -0.64288,0.48828 -0.36923,0.1607 -0.85566,0.19762 z"
         id="path41159" />
      <path
         d="m 226.01695,-106.05798 q -0.26721,-0.0552 -0.48198,-0.20082 -0.21476,-0.14565 -0.35613,-0.36057 -0.13494,-0.20515 -0.19172,-0.46171 -0.0487,-0.25489 0.008,-0.5302 0.0568,-0.27532 0.20416,-0.49818 0.15375,-0.21309 0.36057,-0.35613 0.21325,-0.13327 0.46814,-0.18195 0.25489,-0.0487 0.5221,0.006 0.26722,0.0552 0.48198,0.20082 0.21477,0.14565 0.3578,0.35248 0.14137,0.21492 0.19006,0.4698 0.0551,0.26466 -0.002,0.53997 -0.0568,0.27532 -0.21058,0.48841 -0.14565,0.21477 -0.3589,0.34803 -0.21493,0.14137 -0.46981,0.19006 -0.25489,0.0487 -0.52211,-0.006 z m -3.33823,-2.96869 0.47979,-2.32396 1.53852,0.31763 -0.89773,4.34833 -6.68849,-1.38086 -0.48982,2.37255 -1.53852,-0.31763 1.44606,-7.00429 1.53852,0.31763 -0.5383,2.60737 z"
         id="path41161" />
      <path
         d="m 213.94065,-93.526426 q -0.87771,-0.462662 -1.47805,-1.096899 -0.59302,-0.630381 -0.86558,-1.372235 -0.27256,-0.741854 -0.19926,-1.572445 0.0733,-0.830591 0.53212,-1.700987 0.43567,-0.826508 1.02018,-1.350248 0.58452,-0.52374 1.29898,-0.72661 0.72179,-0.19902 1.56582,-0.0626 0.85134,0.14033 1.80951,0.6454 0.88502,0.46652 1.47805,1.096898 0.58916,0.637696 0.85441,1.375694 0.26139,0.745313 0.18077,1.572049 -0.0733,0.830591 -0.52441,1.686358 -0.43953,0.833825 -1.03135,1.353706 -0.58451,0.523737 -1.3063,0.722756 -0.72178,0.19902 -1.56195,0.05523 -0.83672,-0.132615 -1.77294,-0.626122 z m 0.93541,-1.880953 q 1.15566,0.609172 1.96481,0.474903 0.81262,-0.1231 1.25986,-0.971553 0.24675,-0.468113 0.23739,-0.893642 -0.009,-0.42553 -0.21937,-0.807286 -0.2027,-0.3779 -0.57295,-0.70392 -0.37411,-0.318706 -0.85685,-0.57317 -1.16297,-0.613027 -2.00217,-0.457212 -0.8319,0.15967 -1.25986,0.971553 -0.23519,0.446169 -0.23314,0.867843 0.009,0.425529 0.21591,0.796116 0.21388,0.374442 0.59144,0.704317 0.37756,0.329875 0.87493,0.592051 z"
         id="path41163" />
      <path
         d="m 204.46466,-88.965936 3.94395,3.795399 q 0.99493,0.95745 1.70585,0.218704 0.35546,-0.369374 0.38437,-0.99562 0.0232,-0.62029 -0.12798,-1.488678 l -3.83076,-3.686469 1.39891,-1.453662 6.05295,5.824964 -1.20971,1.25706 -0.92804,-0.824239 q 0.0546,0.408283 0.0561,0.788348 -0.004,0.386023 -0.0968,0.744502 -0.0866,0.364212 -0.27308,0.701104 -0.1865,0.336893 -0.50756,0.67052 -0.44719,0.464696 -0.93462,0.661174 -0.48147,0.202212 -0.98507,0.165098 -0.49765,-0.03138 -0.99979,-0.296579 -0.50191,-0.253508 -0.98447,-0.7179 l -4.06311,-3.910064 z"
         id="path41165" />
    </g>
  </g>
</svg>
